# xmcd
#
# Track frame offsets: 
#        150
#        14915
#        32175
#        50750
#        72572
#        93820
#        107122
#        131032
#        156372
#        170837
#        185187
#        201722
#        225490
#        252787
#        273667
#        287222
#        302962
#        317977
#
# Disc length: 4394 seconds
#
# Revision: 0
# Processed by: cddbd v1.4PL0 Copyright (c) Steve Scherf et al.
# Submitted via: ExactAudioCopy v0.95a3
#
DISCID=28112812
DTITLE=Billy Joel - The Ultimate Collection
DYEAR=1900
DGENRE=Blues
TTITLE0=Uptown Girl
TTITLE1=Tell Her About It
TTITLE2=The River Of Dreams
TTITLE3=Just The Way You Are
TTITLE4=My Life
TTITLE5=It's Still Rock And Roll To Me
TTITLE6=An Innocent Man
TTITLE7=Piano Man
TTITLE8=You're My Home
TTITLE9=Everybody Loves You Now
TTITLE10=The Entertainer
TTITLE11=Streetlife Serenade
TTITLE12=New York State Of Mind
TTITLE13=Say Goodbye To Hollywood
TTITLE14=She's Got Away
TTITLE15=Movin' Out (Anthony's Song)
TTITLE16=She's Always A Woman
TTITLE17=Honesty
EXTD=
EXTT0=
EXTT1=
EXTT2=
EXTT3=
EXTT4=
EXTT5=
EXTT6=
EXTT7=
EXTT8=
EXTT9=
EXTT10=
EXTT11=
EXTT12=
EXTT13=
EXTT14=
EXTT15=
EXTT16=
EXTT17=
PLAYORDER=
